<?xml version="1.0" encoding="UTF-8" standalone="no"?>
<!-- Creator: fig2dev Version 3.2.8b -->
<!-- CreationDate: 2023-11-06 10:49:53 -->
<!-- Magnification: 1.05 -->
<svg	xmlns="http://www.w3.org/2000/svg"
	xmlns:xlink="http://www.w3.org/1999/xlink"
	width="584pt" height="329pt"
	viewBox="-22 -1597 9269 5219">
<g fill="none">
<!-- Line -->
<rect x="0" y="-1575" width="9225" height="5175" rx="105"
	stroke="#ffd600" stroke-width="15px"/>
<!-- Text -->
<text xml:space="preserve" x="6300" y="3240" fill="#000000" font-family="Helvetica" font-style="normal" font-weight="bold" font-size="216" text-anchor="middle">Ce:Z</text>
<!-- Text -->
<text xml:space="preserve" x="450" y="2115" fill="#000000" font-family="Helvetica" font-style="normal" font-weight="bold" font-size="216" text-anchor="middle">Ce:A</text>
<!-- Text -->
<text xml:space="preserve" x="7410" y="2100" fill="#000000" font-family="Helvetica" font-style="normal" font-weight="bold" font-size="216" text-anchor="middle">0</text>
<!-- Text -->
<text xml:space="preserve" x="7410" y="3225" fill="#000000" font-family="Helvetica" font-style="normal" font-weight="bold" font-size="216" text-anchor="middle">Re:rf</text>
<!-- Text -->
<text xml:space="preserve" x="8760" y="3225" fill="#000000" font-family="Helvetica" font-style="normal" font-weight="bold" font-size="216" text-anchor="middle">Ce:Zf</text>
<!-- Text -->
<text xml:space="preserve" x="7410" y="975" fill="#000000" font-family="Helvetica" font-style="normal" font-weight="bold" font-size="216" text-anchor="middle">Ce:P</text>
<!-- Text -->
<text xml:space="preserve" x="1800" y="2115" fill="#000000" font-family="Helvetica" font-style="normal" font-weight="bold" font-size="216" text-anchor="middle">1</text>
<!-- Text -->
<text xml:space="preserve" x="4050" y="2115" fill="#000000" font-family="Helvetica" font-style="normal" font-weight="bold" font-size="216" text-anchor="middle">0</text>
<!-- Text -->
<text xml:space="preserve" x="4050" y="990" fill="#000000" font-family="Helvetica" font-style="normal" font-weight="bold" font-size="216" text-anchor="middle">Ce:C</text>
<!-- Text -->
<text xml:space="preserve" x="6300" y="2115" fill="#000000" font-family="Helvetica" font-style="normal" font-weight="bold" font-size="216" text-anchor="middle">1</text>
<!-- Text -->
<g transform="translate(2835,2025) rotate(-270)" >
<text xml:space="preserve" x="0" y="0" fill="#000000" font-family="Helvetica" font-style="normal" font-weight="bold" font-size="216" text-anchor="middle">Re:r1</text>
</g><!-- Text -->
<g transform="translate(5085,2025) rotate(-270)" >
<text xml:space="preserve" x="0" y="0" fill="#000000" font-family="Helvetica" font-style="normal" font-weight="bold" font-size="216" text-anchor="middle">Re:r2</text>
</g><!-- Text -->
<text xml:space="preserve" x="4050" y="-1260" fill="#000000" font-family="Helvetica" font-style="normal" font-weight="bold" font-size="216" text-anchor="middle">Ce:E</text>
<!-- Text -->
<text xml:space="preserve" x="4050" y="-135" fill="#000000" font-family="Helvetica" font-style="normal" font-weight="bold" font-size="216" text-anchor="middle">0</text>
<!-- Line -->
<polyline points=" 6075,1800 4275,0 4275,225"
	stroke="#000000" stroke-width="15px"/>
<!-- Line -->
<polyline points=" 3825,0 2025,1800 2250,1800"
	stroke="#000000" stroke-width="15px"/>
<!-- Line -->
<polyline points=" 900,2025 1575,2025 1350,2250"
	stroke="#000000" stroke-width="15px"/>
<!-- Line -->
<polyline points=" 4050,1800 4050,1125 4275,1350"
	stroke="#000000" stroke-width="15px"/>
<!-- Line -->
<polyline points=" 3150,2025 3825,2025 3600,2250"
	stroke="#000000" stroke-width="15px"/>
<!-- Line -->
<polyline points=" 4275,2025 4950,2025 4725,2250"
	stroke="#000000" stroke-width="15px"/>
<!-- Line -->
<polyline points=" 5400,2025 6075,2025 5850,2250"
	stroke="#000000" stroke-width="15px"/>
<!-- Line -->
<polyline points=" 2025,2025 2700,2025 2475,2250"
	stroke="#000000" stroke-width="15px"/>
<!-- Line -->
<polyline points=" 4050,-450 4050,-1125 4275,-900"
	stroke="#000000" stroke-width="15px"/>
<!-- Line -->
<polyline points=" 6300,2250 6300,2925 6525,2700"
	stroke="#000000" stroke-width="15px"/>
<!-- Line -->
<polyline points=" 6510,2025 7185,2025 6960,2250"
	stroke="#000000" stroke-width="15px"/>
<!-- Line -->
<polyline points=" 7410,2235 7410,2910 7635,2685"
	stroke="#000000" stroke-width="15px"/>
<!-- Line -->
<polyline points=" 7635,3135 8310,3135 8085,3360"
	stroke="#000000" stroke-width="15px"/>
<!-- Line -->
<polyline points=" 7410,1785 7410,1110 7635,1335"
	stroke="#000000" stroke-width="15px"/>
<!-- Line -->
<polyline points=" 6300,1800 4500,0 4500,225"
	stroke="#000000" stroke-width="15px"/>
<!-- Line -->
<polyline points=" 3600,0 1800,1800 2025,1800"
	stroke="#000000" stroke-width="15px"/>
</g>
</svg>
