<?xml version="1.0" encoding="UTF-8" standalone="no"?>
<!-- Creator: fig2dev Version 3.2.8b -->
<!-- CreationDate: 2024-02-24 16:22:01 -->
<!-- Magnification: 1.05 -->
<svg	xmlns="http://www.w3.org/2000/svg"
	xmlns:xlink="http://www.w3.org/1999/xlink"
	width="499pt" height="258pt"
	viewBox="-22 -472 7919 4094">
<g fill="none">
<!-- Line -->
<rect x="0" y="-450" width="7875" height="4050" rx="105"
	stroke="#ffd600" stroke-width="15px"/>
<!-- Text -->
<text xml:space="preserve" x="450" y="2115" fill="#000000" font-family="Helvetica" font-style="normal" font-weight="bold" font-size="216" text-anchor="middle">Ce:A</text>
<!-- Text -->
<text xml:space="preserve" x="5175" y="2115" fill="#000000" font-family="Helvetica" font-style="normal" font-weight="bold" font-size="216" text-anchor="middle">0</text>
<!-- Text -->
<text xml:space="preserve" x="5175" y="3240" fill="#000000" font-family="Helvetica" font-style="normal" font-weight="bold" font-size="216" text-anchor="middle">Re:rf</text>
<!-- Text -->
<text xml:space="preserve" x="6525" y="3240" fill="#000000" font-family="Helvetica" font-style="normal" font-weight="bold" font-size="216" text-anchor="middle">Ce:Zf</text>
<!-- Text -->
<text xml:space="preserve" x="5175" y="990" fill="#000000" font-family="Helvetica" font-style="normal" font-weight="bold" font-size="216" text-anchor="middle">Ce:P</text>
<!-- Text -->
<g transform="translate(2835,2025) rotate(-270)" >
<text xml:space="preserve" x="0" y="0" fill="#000000" font-family="Helvetica" font-style="normal" font-weight="bold" font-size="216" text-anchor="middle">Re:r</text>
</g><!-- Text -->
<text xml:space="preserve" x="1800" y="2115" fill="#000000" font-family="Helvetica" font-style="normal" font-weight="bold" font-size="216" text-anchor="middle">1</text>
<!-- Text -->
<text xml:space="preserve" x="4050" y="2115" fill="#000000" font-family="Helvetica" font-style="normal" font-weight="bold" font-size="216" text-anchor="middle">1</text>
<!-- Text -->
<text xml:space="preserve" x="2925" y="-135" fill="#000000" font-family="Helvetica" font-style="normal" font-weight="bold" font-size="216" text-anchor="middle">Ce:E</text>
<!-- Text -->
<text xml:space="preserve" x="2925" y="990" fill="#000000" font-family="Helvetica" font-style="normal" font-weight="bold" font-size="216" text-anchor="middle">0</text>
<!-- Line -->
<polyline points=" 900,2025 1575,2025 1350,2250"
	stroke="#000000" stroke-width="15px"/>
<!-- Line -->
<polyline points=" 3150,2025 3825,2025 3600,2250"
	stroke="#000000" stroke-width="15px"/>
<!-- Line -->
<polyline points=" 4275,2025 4950,2025 4725,2250"
	stroke="#000000" stroke-width="15px"/>
<!-- Line -->
<polyline points=" 5175,2250 5175,2925 5400,2700"
	stroke="#000000" stroke-width="15px"/>
<!-- Line -->
<polyline points=" 5400,3150 6075,3150 5850,3375"
	stroke="#000000" stroke-width="15px"/>
<!-- Line -->
<polyline points=" 2025,2025 2700,2025 2475,2250"
	stroke="#000000" stroke-width="15px"/>
<!-- Line -->
<polyline points=" 3825,1800 3150,1125 3150,1350"
	stroke="#000000" stroke-width="15px"/>
<!-- Line -->
<polyline points=" 2925,675 2925,0 3150,225"
	stroke="#000000" stroke-width="15px"/>
<!-- Line -->
<polyline points=" 5175,1800 5175,1125 5400,1350"
	stroke="#000000" stroke-width="15px"/>
<!-- Line -->
<polyline points=" 2700,1125 2025,1800 2250,1800"
	stroke="#000000" stroke-width="15px"/>
<!-- Line -->
<polyline points=" 4050,1800 3375,1125 3375,1350"
	stroke="#000000" stroke-width="15px"/>
<!-- Line -->
<polyline points=" 2475,1125 1800,1800 2025,1800"
	stroke="#000000" stroke-width="15px"/>
<!-- Line -->
<polyline points=" 3735,1800 3060,1125 3060,1350"
	stroke="#000000" stroke-width="15px"/>
<!-- Line -->
<polyline points=" 4140,1800 3465,1125 3465,1350"
	stroke="#000000" stroke-width="15px"/>
<!-- Line -->
<polyline points=" 2407,1102 1732,1777 1957,1777"
	stroke="#000000" stroke-width="15px"/>
<!-- Line -->
<polyline points=" 2812,1102 2137,1777 2362,1777"
	stroke="#000000" stroke-width="15px"/>
</g>
</svg>
