<?xml version="1.0" encoding="UTF-8" standalone="no"?>
<!-- Creator: fig2dev Version 3.2.8b -->
<!-- CreationDate: 2024-02-21 08:57:13 -->
<!-- Magnification: 1.05 -->
<svg	xmlns="http://www.w3.org/2000/svg"
	xmlns:xlink="http://www.w3.org/1999/xlink"
	width="273pt" height="188pt"
	viewBox="2903 1103 4319 2969">
<g fill="none">
<!-- Line -->
<rect x="3825" y="1800" width="2475" height="1800" rx="105"
	stroke="#0000ff" stroke-width="15px" stroke-dasharray="60 60"/>
<!-- Line -->
<rect x="2925" y="1125" width="4275" height="2925" rx="105"
	stroke="#ffd600" stroke-width="15px"/>
<!-- Text -->
<text xml:space="preserve" x="6750" y="2790" fill="#000000" font-family="Helvetica" font-style="normal" font-weight="bold" font-size="216" text-anchor="middle">0</text>
<!-- Text -->
<text xml:space="preserve" x="6750" y="1440" fill="#000000" font-family="Helvetica" font-style="normal" font-weight="bold" font-size="216" text-anchor="middle">C:P</text>
<!-- Text -->
<g transform="translate(5535,2700) rotate(-270)" >
<text xml:space="preserve" x="0" y="0" fill="#000000" font-family="Helvetica" font-style="normal" font-weight="bold" font-size="216" text-anchor="middle">Selkov:selkov</text>
</g><!-- Text -->
<text xml:space="preserve" x="3375" y="2790" fill="#000000" font-family="Helvetica" font-style="normal" font-weight="bold" font-size="216" text-anchor="middle">0</text>
<!-- Text -->
<text xml:space="preserve" x="5850" y="2475" fill="#ff0000" font-family="Helvetica" font-style="normal" font-weight="bold" font-size="168" text-anchor="middle">[P]</text>
<!-- Text -->
<text xml:space="preserve" x="5400" y="2475" fill="#ff0000" font-family="Helvetica" font-style="normal" font-weight="bold" font-size="168" text-anchor="end">[Act]</text>
<!-- Text -->
<text xml:space="preserve" x="4500" y="2790" fill="#000000" font-family="Helvetica" font-style="normal" font-weight="bold" font-size="216" text-anchor="middle">1</text>
<!-- Line -->
<polyline points=" 5850,2700 6525,2700 6300,2925"
	stroke="#000000" stroke-width="15px"/>
<!-- Line -->
<polyline points=" 6750,2475 6750,1575 6975,1800"
	stroke="#000000" stroke-width="15px"/>
<!-- Line -->
<polyline points=" 4725,2700 5400,2700 5175,2925"
	stroke="#000000" stroke-width="15px"/>
<!-- Line -->
<polyline points=" 6750,2925 6750,3825 3375,3825 3375,2925 3600,3150"
	stroke="#000000" stroke-width="15px"/>
<!-- Line -->
<polyline points=" 3600,2475 4275,2475 4050,2700"
	stroke="#000000" stroke-width="15px"/>
<!-- Line -->
<polyline points=" 3600,2925 4275,2925 4050,3150"
	stroke="#000000" stroke-width="15px"/>
<!-- Line -->
<polyline points=" 3600,2700 4275,2700 4050,2925"
	stroke="#000000" stroke-width="15px"/>
</g>
</svg>
